# xmcd CD database file generated by Grip 3.2.0
# 
# Track frame offsets:
#       150
#       20447
#       29858
#       42840
#       49381
#       66524
#       80159
#       93952
#       111059
#       127211
#       141050
#       160994
#       177424
#       192514
# 
# Disc length: 2781 seconds
# 
# Revision: 2
# Processed by: cddbd v1.5.2PL0 Copyright (c) Steve Scherf et al.
# Submitted via: Grip 3.2.0
# 
DISCID=d40adb0e
DTITLE=Alexandru Andrieş - Vreme rea
DYEAR=1900
DGENRE=Blues
TTITLE0=Farmece
TTITLE1=Cea mai frumoasă zi
TTITLE2=Agresiv
TTITLE3=Arc
TTITLE4=Culori
TTITLE5=Amorţit
TTITLE6=Vreme rea
TTITLE7=La radio
TTITLE8=Seară, ploaie, parc
TTITLE9=Dimineaţa
TTITLE10=Nu-mi iese nimic
TTITLE11=Cină in doi
TTITLE12=Pe scenă
TTITLE13=Dor de tine
EXTD=2000
EXTT0=
EXTT1=
EXTT2=
EXTT3=
EXTT4=
EXTT5=
EXTT6=
EXTT7=
EXTT8=
EXTT9=
EXTT10=
EXTT11=
EXTT12=
EXTT13=
PLAYORDER=
